<svg id="_x33_0" enable-background="new 0 0 62 62" height="512" viewBox="0 0 62 62" width="512" xmlns="http://www.w3.org/2000/svg" xmlns:xlink="http://www.w3.org/1999/xlink"><linearGradient id="SVGID_1_" gradientUnits="userSpaceOnUse" x1="31" x2="31" y1="62" y2="0"><stop offset="0" stop-color="#9f2fff"/><stop offset="1" stop-color="#0bb1d3"/></linearGradient><path d="m57 0c-1.012 0-1.931.637-2.287 1.585l-1.656 4.415h-10.429c-1.934-3.57-5.713-6-10.05-6h-3.156c-4.337 0-8.116 2.43-10.05 6h-17.372c-1.103 0-2 .897-2 2v32c0 1.103.897 2 2 2h50.184c.414 1.161 1.514 2 2.816 2h1v14c0 1.103-.897 2-2 2s-2-.897-2-2v-10c0-2.206-1.794-4-4-4s-4 1.794-4 4v10c0 1.103-.897 2-2 2s-2-.897-2-2v-2c0-2.206-1.794-4-4-4h-10v-1c0-3.859-3.141-7-7-7h-12c-3.859 0-7 3.141-7 7v4c0 3.859 3.141 7 7 7h12c3.859 0 7-3.141 7-7v-1h10c1.103 0 2 .897 2 2v2c0 2.206 1.794 4 4 4s4-1.794 4-4v-10c0-1.103.897-2 2-2s2 .897 2 2v10c0 2.206 1.794 4 4 4s4-1.794 4-4v-14h1c1.654 0 3-1.346 3-3v-32.182l-2.713-7.233c-.356-.948-1.275-1.585-2.287-1.585zm-36 54c-.552 0-1-.448-1-1s.448-1 1-1h3v2zm2.899-4h-2.899c-1.302 0-2.402.839-2.816 2h-2.184v-6h3c2.414 0 4.434 1.721 4.899 4zm-21.899 5v-4c0-2.757 2.243-5 5-5h7v14h-7c-2.757 0-5-2.243-5-5zm17 5h-3v-6h2.184c.414 1.161 1.514 2 2.816 2h2.899c-.465 2.279-2.485 4-4.899 4zm35-32v-18h2v18zm0 6h6v2h-6zm0-2v-2h6v2zm4-4v-18h2v18zm-3.557-20 .75-2h3.614l.75 2zm2.972-5.712.642 1.712h-2.115l.642-1.712c.131-.344.702-.344.831 0zm-27.993-.288h3.156c5.195 0 9.422 4.227 9.422 9.422 0 3.158-1.568 6.089-4.195 7.84l-1.805 1.203v3.535h-2v-5c0-1.565.748-3.061 2.001-4l2.355-1.768-3.014-4.521-2.146 1.072-2.196-2.197-2.197 2.197-2.146-1.072-3.014 4.521 2.357 1.768c1.252.939 2 2.435 2 4v5h-2v-3.535l-1.805-1.203c-2.627-1.751-4.195-4.682-4.195-7.84 0-5.195 4.227-9.422 9.422-9.422zm2.578 22h-2v-5c0-2.191-1.047-4.285-2.8-5.6l-.844-.633.986-1.479 1.854.928 1.804-1.802 1.803 1.803 1.854-.928.986 1.479-.842.632c-1.754 1.315-2.801 3.409-2.801 5.6zm-13.475-16c-.34 1.081-.525 2.23-.525 3.422 0 3.828 1.901 7.381 5.086 9.504l.914.609v4.465h14v-4.465l.914-.609c3.185-2.123 5.086-5.676 5.086-9.504 0-1.192-.185-2.341-.525-3.422h8.832l-.307.818v25.182h-16.111c1.301-1.272 2.111-3.042 2.111-5v-1h-14v1c0 1.958.81 3.728 2.111 5h-24.111v-26zm7.576 22h9.799c-.465 2.279-2.484 4-4.899 4s-4.436-1.721-4.9-4zm-24.101 6h50v4h-16v-2h-2v2h-2v-2h-2v2h-2v-2h-2v2h-24zm57 6h-4c-.552 0-1-.448-1-1v-3h6v3c0 .552-.448 1-1 1z" fill="url(#SVGID_1_)"/></svg>