<svg height="512" viewBox="0 0 512 512" width="512" xmlns="http://www.w3.org/2000/svg" xmlns:xlink="http://www.w3.org/1999/xlink"><linearGradient id="a" gradientUnits="userSpaceOnUse" x1="-67.97" x2="414.752" y1="427.97" y2="-54.752" data-name="New Gradient Swatch 1"><stop offset="0" stop-color="#003f8a"/><stop offset=".518" stop-color="#00d7df"/><stop offset="1" stop-color="#006df0"/></linearGradient><linearGradient id="b" x1="-39.97" x2="442.752" xlink:href="#a" y1="455.97" y2="-26.752"/><linearGradient id="c" x1="-11.97" x2="470.752" xlink:href="#a" y1="483.97" y2="1.248"/><linearGradient id="d" x1="92.03" x2="574.752" xlink:href="#a" y1="587.97" y2="105.248"/><linearGradient id="e" x1="80.03" x2="562.752" xlink:href="#a" y1="575.97" y2="93.248"/><linearGradient id="f" x1="68.03" x2="550.752" xlink:href="#a" y1="563.97" y2="81.248"/><linearGradient id="g" x1="8.03" x2="490.752" xlink:href="#a" y1="503.97" y2="21.248"/><linearGradient id="h" x1="-147.97" x2="334.752" xlink:href="#a" y1="347.97" y2="-134.752"/><linearGradient id="i" x1="-119.97" x2="362.752" xlink:href="#a" y1="375.97" y2="-106.752"/><linearGradient id="j" x1="-91.97" x2="390.752" xlink:href="#a" y1="403.97" y2="-78.752"/><linearGradient id="k" x1="12.03" x2="494.752" xlink:href="#a" y1="507.97" y2="25.248"/><linearGradient id="l" x1=".03" x2="482.752" xlink:href="#a" y1="495.97" y2="13.248"/><linearGradient id="o" x1="40.03" x2="522.752" xlink:href="#a" y1="535.97" y2="53.248"/><linearGradient id="q" x1="172.03" x2="654.752" xlink:href="#a" y1="667.97" y2="185.248"/><linearGradient id="r" x1="160.03" x2="642.752" xlink:href="#a" y1="655.97" y2="173.248"/><linearGradient id="s" x1="148.03" x2="630.752" xlink:href="#a" y1="643.97" y2="161.248"/><g><path d="m120 232h-32a8 8 0 0 0 -8 8v32a8 8 0 0 0 8 8h32a8 8 0 0 0 8-8v-32a8 8 0 0 0 -8-8zm-8 32h-16v-16h16z" fill="url(#a)"/><path d="m176 232h-32a8 8 0 0 0 -8 8v32a8 8 0 0 0 8 8h32a8 8 0 0 0 8-8v-32a8 8 0 0 0 -8-8zm-8 32h-16v-16h16z" fill="url(#b)"/><path d="m232 232h-32a8 8 0 0 0 -8 8v32a8 8 0 0 0 8 8h32a8 8 0 0 0 8-8v-32a8 8 0 0 0 -8-8zm-8 32h-16v-16h16z" fill="url(#c)"/><circle cx="424" cy="256" fill="url(#d)" r="8"/><circle cx="400" cy="256" fill="url(#e)" r="8"/><circle cx="376" cy="256" fill="url(#f)" r="8"/><path d="m436 160a28.031 28.031 0 0 0 28-28v-72a28.031 28.031 0 0 0 -28-28h-140v-16a8 8 0 0 0 -8-8h-64a8 8 0 0 0 -8 8v16h-140a28.031 28.031 0 0 0 -28 28v72a28.031 28.031 0 0 0 28 28h12v32h-12a28.031 28.031 0 0 0 -28 28v72a28.031 28.031 0 0 0 28 28h12v32h-12a28.031 28.031 0 0 0 -28 28v72a28.031 28.031 0 0 0 28 28h140v16a8 8 0 0 0 8 8h64a8 8 0 0 0 8-8v-16h140a28.031 28.031 0 0 0 28-28v-72a28.031 28.031 0 0 0 -28-28h-12v-32h12a28.031 28.031 0 0 0 28-28v-72a28.031 28.031 0 0 0 -28-28h-12v-32zm-204-136h48v8h-48zm48 464h-48v-8h48zm156-120a12.01 12.01 0 0 1 12 12v72a12.01 12.01 0 0 1 -12 12h-360a12.01 12.01 0 0 1 -12-12v-72a12.01 12.01 0 0 1 12-12zm-332-16v-32h304v32zm332-144a12.01 12.01 0 0 1 12 12v72a12.01 12.01 0 0 1 -12 12h-360a12.01 12.01 0 0 1 -12-12v-72a12.01 12.01 0 0 1 12-12zm-332-16v-32h304v32zm-28-48a12.01 12.01 0 0 1 -12-12v-72a12.01 12.01 0 0 1 12-12h360a12.01 12.01 0 0 1 12 12v72a12.01 12.01 0 0 1 -12 12z" fill="url(#g)"/><path d="m128 112v-32a8 8 0 0 0 -8-8h-32a8 8 0 0 0 -8 8v32a8 8 0 0 0 8 8h32a8 8 0 0 0 8-8zm-16-8h-16v-16h16z" fill="url(#h)"/><path d="m144 120h32a8 8 0 0 0 8-8v-32a8 8 0 0 0 -8-8h-32a8 8 0 0 0 -8 8v32a8 8 0 0 0 8 8zm8-32h16v16h-16z" fill="url(#i)"/><path d="m200 120h32a8 8 0 0 0 8-8v-32a8 8 0 0 0 -8-8h-32a8 8 0 0 0 -8 8v32a8 8 0 0 0 8 8zm8-32h16v16h-16z" fill="url(#j)"/><circle cx="424" cy="96" fill="url(#k)" r="8"/><circle cx="400" cy="96" fill="url(#l)" r="8"/><circle cx="376" cy="96" fill="url(#c)" r="8"/><path d="m120 392h-32a8 8 0 0 0 -8 8v32a8 8 0 0 0 8 8h32a8 8 0 0 0 8-8v-32a8 8 0 0 0 -8-8zm-8 32h-16v-16h16z" fill="url(#k)"/><path d="m176 392h-32a8 8 0 0 0 -8 8v32a8 8 0 0 0 8 8h32a8 8 0 0 0 8-8v-32a8 8 0 0 0 -8-8zm-8 32h-16v-16h16z" fill="url(#o)"/><path d="m232 392h-32a8 8 0 0 0 -8 8v32a8 8 0 0 0 8 8h32a8 8 0 0 0 8-8v-32a8 8 0 0 0 -8-8zm-8 32h-16v-16h16z" fill="url(#f)"/><circle cx="424" cy="416" fill="url(#q)" r="8"/><circle cx="400" cy="416" fill="url(#r)" r="8"/><circle cx="376" cy="416" fill="url(#s)" r="8"/></g></svg>